<svg width="1422" height="797" viewBox="0 0 1422 797" fill="none" xmlns="http://www.w3.org/2000/svg">
<g opacity="0.08" clip-path="url(#clip0_64_185659)">
<path d="M0 -3L54 51" stroke="white" stroke-width="3.5"/>
<path d="M108 -3L54 51" stroke="white" stroke-width="3.5"/>
<path d="M162 -3L108 51" stroke="white" stroke-width="3.5"/>
<path d="M162 -3L216 51" stroke="white" stroke-width="3.5"/>
<path d="M216 -3L270 51" stroke="white" stroke-width="3.5"/>
<path d="M270 -3L324 51" stroke="white" stroke-width="3.5"/>
<path d="M378 -3L324 51" stroke="white" stroke-width="3.5"/>
<path d="M378 -3L432 51" stroke="white" stroke-width="3.5"/>
<path d="M432 -3L486 51" stroke="white" stroke-width="3.5"/>
<path d="M540 -3L486 51" stroke="white" stroke-width="3.5"/>
<path d="M594 -3L540 51" stroke="white" stroke-width="3.5"/>
<path d="M648 -3L594 51" stroke="white" stroke-width="3.5"/>
<path d="M648 -3L702 51" stroke="white" stroke-width="3.5"/>
<path d="M756 -3L702 51" stroke="white" stroke-width="3.5"/>
<path d="M810 -3L756 51" stroke="white" stroke-width="3.5"/>
<path d="M810 -3L864 51" stroke="white" stroke-width="3.5"/>
<path d="M864 -3L918 51" stroke="white" stroke-width="3.5"/>
<path d="M972 -3L918 51" stroke="white" stroke-width="3.5"/>
<path d="M972 -3L1026 51" stroke="white" stroke-width="3.5"/>
<path d="M1080 -3L1026 51" stroke="white" stroke-width="3.5"/>
<path d="M1080 -3L1134 51" stroke="white" stroke-width="3.5"/>
<path d="M1134 -3L1188 51" stroke="white" stroke-width="3.5"/>
<path d="M1242 -3L1188 51" stroke="white" stroke-width="3.5"/>
<path d="M1296 -3L1242 51" stroke="white" stroke-width="3.5"/>
<path d="M1350 -3L1296 51" stroke="white" stroke-width="3.5"/>
<path d="M1350 -3L1404 51" stroke="white" stroke-width="3.5"/>
<path d="M1404 -3L1458 51" stroke="white" stroke-width="3.5"/>
<path opacity="0.94" d="M0 51L54 105" stroke="white" stroke-width="3.5"/>
<path opacity="0.94" d="M108 51L54 105" stroke="white" stroke-width="3.5"/>
<path opacity="0.94" d="M108 51L162 105" stroke="white" stroke-width="3.5"/>
<path opacity="0.94" d="M216 51L162 105" stroke="white" stroke-width="3.5"/>
<path opacity="0.94" d="M216 51L270 105" stroke="white" stroke-width="3.5"/>
<path opacity="0.94" d="M270 51L324 105" stroke="white" stroke-width="3.5"/>
<path opacity="0.94" d="M324 51L378 105" stroke="white" stroke-width="3.5"/>
<path opacity="0.94" d="M432 51L378 105" stroke="white" stroke-width="3.5"/>
<path opacity="0.94" d="M432 51L486 105" stroke="white" stroke-width="3.5"/>
<path opacity="0.94" d="M486 51L540 105" stroke="white" stroke-width="3.5"/>
<path opacity="0.94" d="M540 51L594 105" stroke="white" stroke-width="3.5"/>
<path opacity="0.94" d="M648 51L594 105" stroke="white" stroke-width="3.5"/>
<path opacity="0.94" d="M648 51L702 105" stroke="white" stroke-width="3.5"/>
<path opacity="0.94" d="M756 51L702 105" stroke="white" stroke-width="3.5"/>
<path opacity="0.94" d="M756 51L810 105" stroke="white" stroke-width="3.5"/>
<path opacity="0.94" d="M810 51L864 105" stroke="white" stroke-width="3.5"/>
<path opacity="0.94" d="M918 51L864 105" stroke="white" stroke-width="3.5"/>
<path opacity="0.94" d="M972 51L918 105" stroke="white" stroke-width="3.5"/>
<path opacity="0.94" d="M972 51L1026 105" stroke="white" stroke-width="3.5"/>
<path opacity="0.94" d="M1080 51L1026 105" stroke="white" stroke-width="3.5"/>
<path opacity="0.94" d="M1134 51L1080 105" stroke="white" stroke-width="3.5"/>
<path opacity="0.94" d="M1134 51L1188 105" stroke="white" stroke-width="3.5"/>
<path opacity="0.94" d="M1188 51L1242 105" stroke="white" stroke-width="3.5"/>
<path opacity="0.94" d="M1242 51L1296 105" stroke="white" stroke-width="3.5"/>
<path opacity="0.94" d="M1296 51L1350 105" stroke="white" stroke-width="3.5"/>
<path opacity="0.94" d="M1404 51L1350 105" stroke="white" stroke-width="3.5"/>
<path opacity="0.94" d="M1458 51L1404 105" stroke="white" stroke-width="3.5"/>
<path opacity="0.87" d="M54 105L0 159" stroke="white" stroke-width="3.5"/>
<path opacity="0.87" d="M108 105L54 159" stroke="white" stroke-width="3.5"/>
<path opacity="0.87" d="M108 105L162 159" stroke="white" stroke-width="3.5"/>
<path opacity="0.87" d="M216 105L162 159" stroke="white" stroke-width="3.5"/>
<path opacity="0.87" d="M270 105L216 159" stroke="white" stroke-width="3.5"/>
<path opacity="0.87" d="M324 105L270 159" stroke="white" stroke-width="3.5"/>
<path opacity="0.87" d="M324 105L378 159" stroke="white" stroke-width="3.5"/>
<path opacity="0.87" d="M432 105L378 159" stroke="white" stroke-width="3.5"/>
<path opacity="0.87" d="M486 105L432 159" stroke="white" stroke-width="3.5"/>
<path opacity="0.87" d="M486 105L540 159" stroke="white" stroke-width="3.5"/>
<path opacity="0.87" d="M540 105L594 159" stroke="white" stroke-width="3.5"/>
<path opacity="0.87" d="M594 105L648 159" stroke="white" stroke-width="3.5"/>
<path opacity="0.87" d="M648 105L702 159" stroke="white" stroke-width="3.5"/>
<path opacity="0.87" d="M756 105L702 159" stroke="white" stroke-width="3.5"/>
<path opacity="0.87" d="M756 105L810 159" stroke="white" stroke-width="3.5"/>
<path opacity="0.87" d="M810 105L864 159" stroke="white" stroke-width="3.5"/>
<path opacity="0.87" d="M918 105L864 159" stroke="white" stroke-width="3.5"/>
<path opacity="0.87" d="M972 105L918 159" stroke="white" stroke-width="3.5"/>
<path opacity="0.87" d="M972 105L1026 159" stroke="white" stroke-width="3.5"/>
<path opacity="0.87" d="M1026 105L1080 159" stroke="white" stroke-width="3.5"/>
<path opacity="0.87" d="M1080 105L1134 159" stroke="white" stroke-width="3.5"/>
<path opacity="0.87" d="M1134 105L1188 159" stroke="white" stroke-width="3.5"/>
<path opacity="0.87" d="M1188 105L1242 159" stroke="white" stroke-width="3.5"/>
<path opacity="0.87" d="M1242 105L1296 159" stroke="white" stroke-width="3.5"/>
<path opacity="0.87" d="M1296 105L1350 159" stroke="white" stroke-width="3.5"/>
<path opacity="0.87" d="M1350 105L1404 159" stroke="white" stroke-width="3.5"/>
<path opacity="0.87" d="M1458 105L1404 159" stroke="white" stroke-width="3.5"/>
<path opacity="0.81" d="M0 159L54 213" stroke="white" stroke-width="3.5"/>
<path opacity="0.81" d="M108 159L54 213" stroke="white" stroke-width="3.5"/>
<path opacity="0.81" d="M162 159L108 213" stroke="white" stroke-width="3.5"/>
<path opacity="0.81" d="M162 159L216 213" stroke="white" stroke-width="3.5"/>
<path opacity="0.81" d="M270 159L216 213" stroke="white" stroke-width="3.5"/>
<path opacity="0.81" d="M324 159L270 213" stroke="white" stroke-width="3.5"/>
<path opacity="0.81" d="M378 159L324 213" stroke="white" stroke-width="3.5"/>
<path opacity="0.81" d="M432 159L378 213" stroke="white" stroke-width="3.5"/>
<path opacity="0.81" d="M486 159L432 213" stroke="white" stroke-width="3.5"/>
<path opacity="0.81" d="M486 159L540 213" stroke="white" stroke-width="3.5"/>
<path opacity="0.81" d="M540 159L594 213" stroke="white" stroke-width="3.5"/>
<path opacity="0.81" d="M594 159L648 213" stroke="white" stroke-width="3.5"/>
<path opacity="0.81" d="M702 159L648 213" stroke="white" stroke-width="3.5"/>
<path opacity="0.81" d="M702 159L756 213" stroke="white" stroke-width="3.5"/>
<path opacity="0.81" d="M756 159L810 213" stroke="white" stroke-width="3.5"/>
<path opacity="0.81" d="M810 159L864 213" stroke="white" stroke-width="3.5"/>
<path opacity="0.81" d="M918 159L864 213" stroke="white" stroke-width="3.5"/>
<path opacity="0.81" d="M918 159L972 213" stroke="white" stroke-width="3.5"/>
<path opacity="0.81" d="M972 159L1026 213" stroke="white" stroke-width="3.5"/>
<path opacity="0.81" d="M1080 159L1026 213" stroke="white" stroke-width="3.5"/>
<path opacity="0.81" d="M1134 159L1080 213" stroke="white" stroke-width="3.5"/>
<path opacity="0.81" d="M1134 159L1188 213" stroke="white" stroke-width="3.5"/>
<path opacity="0.81" d="M1242 159L1188 213" stroke="white" stroke-width="3.5"/>
<path opacity="0.81" d="M1242 159L1296 213" stroke="white" stroke-width="3.5"/>
<path opacity="0.81" d="M1350 159L1296 213" stroke="white" stroke-width="3.5"/>
<path opacity="0.81" d="M1350 159L1404 213" stroke="white" stroke-width="3.5"/>
<path opacity="0.81" d="M1404 159L1458 213" stroke="white" stroke-width="3.5"/>
<path opacity="0.74" d="M0 213L54 267" stroke="white" stroke-width="3.5"/>
<path opacity="0.74" d="M54 213L108 267" stroke="white" stroke-width="3.5"/>
<path opacity="0.74" d="M108 213L162 267" stroke="white" stroke-width="3.5"/>
<path opacity="0.74" d="M162 213L216 267" stroke="white" stroke-width="3.5"/>
<path opacity="0.74" d="M270 213L216 267" stroke="white" stroke-width="3.5"/>
<path opacity="0.74" d="M324 213L270 267" stroke="white" stroke-width="3.5"/>
<path opacity="0.74" d="M378 213L324 267" stroke="white" stroke-width="3.5"/>
<path opacity="0.74" d="M432 213L378 267" stroke="white" stroke-width="3.5"/>
<path opacity="0.74" d="M486 213L432 267" stroke="white" stroke-width="3.5"/>
<path opacity="0.74" d="M486 213L540 267" stroke="white" stroke-width="3.5"/>
<path opacity="0.74" d="M540 213L594 267" stroke="white" stroke-width="3.5"/>
<path opacity="0.74" d="M594 213L648 267" stroke="white" stroke-width="3.5"/>
<path opacity="0.74" d="M648 213L702 267" stroke="white" stroke-width="3.5"/>
<path opacity="0.74" d="M756 213L702 267" stroke="white" stroke-width="3.5"/>
<path opacity="0.74" d="M756 213L810 267" stroke="white" stroke-width="3.5"/>
<path opacity="0.74" d="M810 213L864 267" stroke="white" stroke-width="3.5"/>
<path opacity="0.74" d="M864 213L918 267" stroke="white" stroke-width="3.5"/>
<path opacity="0.74" d="M972 213L918 267" stroke="white" stroke-width="3.5"/>
<path opacity="0.74" d="M972 213L1026 267" stroke="white" stroke-width="3.5"/>
<path opacity="0.74" d="M1080 213L1026 267" stroke="white" stroke-width="3.5"/>
<path opacity="0.74" d="M1134 213L1080 267" stroke="white" stroke-width="3.5"/>
<path opacity="0.74" d="M1134 213L1188 267" stroke="white" stroke-width="3.5"/>
<path opacity="0.74" d="M1188 213L1242 267" stroke="white" stroke-width="3.5"/>
<path opacity="0.74" d="M1296 213L1242 267" stroke="white" stroke-width="3.5"/>
<path opacity="0.74" d="M1296 213L1350 267" stroke="white" stroke-width="3.5"/>
<path opacity="0.74" d="M1350 213L1404 267" stroke="white" stroke-width="3.5"/>
<path opacity="0.74" d="M1404 213L1458 267" stroke="white" stroke-width="3.5"/>
<path opacity="0.68" d="M0 267L54 321" stroke="white" stroke-width="3.5"/>
<path opacity="0.68" d="M108 267L54 321" stroke="white" stroke-width="3.5"/>
<path opacity="0.68" d="M108 267L162 321" stroke="white" stroke-width="3.5"/>
<path opacity="0.68" d="M162 267L216 321" stroke="white" stroke-width="3.5"/>
<path opacity="0.68" d="M270 267L216 321" stroke="white" stroke-width="3.5"/>
<path opacity="0.68" d="M324 267L270 321" stroke="white" stroke-width="3.5"/>
<path opacity="0.68" d="M378 267L324 321" stroke="white" stroke-width="3.5"/>
<path opacity="0.68" d="M378 267L432 321" stroke="white" stroke-width="3.5"/>
<path opacity="0.68" d="M432 267L486 321" stroke="white" stroke-width="3.5"/>
<path opacity="0.68" d="M540 267L486 321" stroke="white" stroke-width="3.5"/>
<path opacity="0.68" d="M594 267L540 321" stroke="white" stroke-width="3.5"/>
<path opacity="0.68" d="M594 267L648 321" stroke="white" stroke-width="3.5"/>
<path opacity="0.68" d="M648 267L702 321" stroke="white" stroke-width="3.5"/>
<path opacity="0.68" d="M702 267L756 321" stroke="white" stroke-width="3.5"/>
<path opacity="0.68" d="M810 267L756 321" stroke="white" stroke-width="3.5"/>
<path opacity="0.68" d="M864 267L810 321" stroke="white" stroke-width="3.5"/>
<path opacity="0.68" d="M864 267L918 321" stroke="white" stroke-width="3.5"/>
<path opacity="0.68" d="M972 267L918 321" stroke="white" stroke-width="3.5"/>
<path opacity="0.68" d="M972 267L1026 321" stroke="white" stroke-width="3.5"/>
<path opacity="0.68" d="M1026 267L1080 321" stroke="white" stroke-width="3.5"/>
<path opacity="0.68" d="M1134 267L1080 321" stroke="white" stroke-width="3.5"/>
<path opacity="0.68" d="M1188 267L1134 321" stroke="white" stroke-width="3.5"/>
<path opacity="0.68" d="M1188 267L1242 321" stroke="white" stroke-width="3.5"/>
<path opacity="0.68" d="M1242 267L1296 321" stroke="white" stroke-width="3.5"/>
<path opacity="0.68" d="M1296 267L1350 321" stroke="white" stroke-width="3.5"/>
<path opacity="0.68" d="M1350 267L1404 321" stroke="white" stroke-width="3.5"/>
<path opacity="0.68" d="M1458 267L1404 321" stroke="white" stroke-width="3.5"/>
<path opacity="0.62" d="M0 321L54 375" stroke="white" stroke-width="3.5"/>
<path opacity="0.62" d="M108 321L54 375" stroke="white" stroke-width="3.5"/>
<path opacity="0.62" d="M108 321L162 375" stroke="white" stroke-width="3.5"/>
<path opacity="0.62" d="M216 321L162 375" stroke="white" stroke-width="3.5"/>
<path opacity="0.62" d="M270 321L216 375" stroke="white" stroke-width="3.5"/>
<path opacity="0.62" d="M270 321L324 375" stroke="white" stroke-width="3.5"/>
<path opacity="0.62" d="M324 321L378 375" stroke="white" stroke-width="3.5"/>
<path opacity="0.62" d="M378 321L432 375" stroke="white" stroke-width="3.5"/>
<path opacity="0.62" d="M486 321L432 375" stroke="white" stroke-width="3.5"/>
<path opacity="0.62" d="M486 321L540 375" stroke="white" stroke-width="3.5"/>
<path opacity="0.62" d="M540 321L594 375" stroke="white" stroke-width="3.5"/>
<path opacity="0.62" d="M648 321L594 375" stroke="white" stroke-width="3.5"/>
<path opacity="0.62" d="M648 321L702 375" stroke="white" stroke-width="3.5"/>
<path opacity="0.62" d="M756 321L702 375" stroke="white" stroke-width="3.5"/>
<path opacity="0.62" d="M810 321L756 375" stroke="white" stroke-width="3.5"/>
<path opacity="0.62" d="M864 321L810 375" stroke="white" stroke-width="3.5"/>
<path opacity="0.62" d="M864 321L918 375" stroke="white" stroke-width="3.5"/>
<path opacity="0.62" d="M918 321L972 375" stroke="white" stroke-width="3.5"/>
<path opacity="0.62" d="M1026 321L972 375" stroke="white" stroke-width="3.5"/>
<path opacity="0.62" d="M1080 321L1026 375" stroke="white" stroke-width="3.5"/>
<path opacity="0.62" d="M1080 321L1134 375" stroke="white" stroke-width="3.5"/>
<path opacity="0.62" d="M1188 321L1134 375" stroke="white" stroke-width="3.5"/>
<path opacity="0.62" d="M1242 321L1188 375" stroke="white" stroke-width="3.5"/>
<path opacity="0.62" d="M1296 321L1242 375" stroke="white" stroke-width="3.5"/>
<path opacity="0.62" d="M1296 321L1350 375" stroke="white" stroke-width="3.5"/>
<path opacity="0.62" d="M1404 321L1350 375" stroke="white" stroke-width="3.5"/>
<path opacity="0.62" d="M1458 321L1404 375" stroke="white" stroke-width="3.5"/>
<path opacity="0.55" d="M0 375L54 429" stroke="white" stroke-width="3.5"/>
<path opacity="0.55" d="M108 375L54 429" stroke="white" stroke-width="3.5"/>
<path opacity="0.55" d="M162 375L108 429" stroke="white" stroke-width="3.5"/>
<path opacity="0.55" d="M216 375L162 429" stroke="white" stroke-width="3.5"/>
<path opacity="0.55" d="M216 375L270 429" stroke="white" stroke-width="3.5"/>
<path opacity="0.55" d="M324 375L270 429" stroke="white" stroke-width="3.5"/>
<path opacity="0.55" d="M324 375L378 429" stroke="white" stroke-width="3.5"/>
<path opacity="0.55" d="M378 375L432 429" stroke="white" stroke-width="3.5"/>
<path opacity="0.55" d="M432 375L486 429" stroke="white" stroke-width="3.5"/>
<path opacity="0.55" d="M486 375L540 429" stroke="white" stroke-width="3.5"/>
<path opacity="0.55" d="M594 375L540 429" stroke="white" stroke-width="3.5"/>
<path opacity="0.55" d="M648 375L594 429" stroke="white" stroke-width="3.5"/>
<path opacity="0.55" d="M702 375L648 429" stroke="white" stroke-width="3.5"/>
<path opacity="0.55" d="M756 375L702 429" stroke="white" stroke-width="3.5"/>
<path opacity="0.55" d="M810 375L756 429" stroke="white" stroke-width="3.5"/>
<path opacity="0.55" d="M864 375L810 429" stroke="white" stroke-width="3.5"/>
<path opacity="0.55" d="M864 375L918 429" stroke="white" stroke-width="3.5"/>
<path opacity="0.55" d="M918 375L972 429" stroke="white" stroke-width="3.5"/>
<path opacity="0.55" d="M1026 375L972 429" stroke="white" stroke-width="3.5"/>
<path opacity="0.55" d="M1026 375L1080 429" stroke="white" stroke-width="3.5"/>
<path opacity="0.55" d="M1080 375L1134 429" stroke="white" stroke-width="3.5"/>
<path opacity="0.55" d="M1188 375L1134 429" stroke="white" stroke-width="3.5"/>
<path opacity="0.55" d="M1242 375L1188 429" stroke="white" stroke-width="3.5"/>
<path opacity="0.55" d="M1242 375L1296 429" stroke="white" stroke-width="3.5"/>
<path opacity="0.55" d="M1296 375L1350 429" stroke="white" stroke-width="3.5"/>
<path opacity="0.55" d="M1350 375L1404 429" stroke="white" stroke-width="3.5"/>
<path opacity="0.55" d="M1404 375L1458 429" stroke="white" stroke-width="3.5"/>
<path opacity="0.49" d="M54 429L0 483" stroke="white" stroke-width="3.5"/>
<path opacity="0.49" d="M108 429L54 483" stroke="white" stroke-width="3.5"/>
<path opacity="0.49" d="M162 429L108 483" stroke="white" stroke-width="3.5"/>
<path opacity="0.49" d="M216 429L162 483" stroke="white" stroke-width="3.5"/>
<path opacity="0.49" d="M216 429L270 483" stroke="white" stroke-width="3.5"/>
<path opacity="0.49" d="M324 429L270 483" stroke="white" stroke-width="3.5"/>
<path opacity="0.49" d="M378 429L324 483" stroke="white" stroke-width="3.5"/>
<path opacity="0.49" d="M432 429L378 483" stroke="white" stroke-width="3.5"/>
<path opacity="0.49" d="M486 429L432 483" stroke="white" stroke-width="3.5"/>
<path opacity="0.49" d="M540 429L486 483" stroke="white" stroke-width="3.5"/>
<path opacity="0.49" d="M540 429L594 483" stroke="white" stroke-width="3.5"/>
<path opacity="0.49" d="M648 429L594 483" stroke="white" stroke-width="3.5"/>
<path opacity="0.49" d="M702 429L648 483" stroke="white" stroke-width="3.5"/>
<path opacity="0.49" d="M756 429L702 483" stroke="white" stroke-width="3.5"/>
<path opacity="0.49" d="M810 429L756 483" stroke="white" stroke-width="3.5"/>
<path opacity="0.49" d="M864 429L810 483" stroke="white" stroke-width="3.5"/>
<path opacity="0.49" d="M918 429L864 483" stroke="white" stroke-width="3.5"/>
<path opacity="0.49" d="M918 429L972 483" stroke="white" stroke-width="3.5"/>
<path opacity="0.49" d="M972 429L1026 483" stroke="white" stroke-width="3.5"/>
<path opacity="0.49" d="M1026 429L1080 483" stroke="white" stroke-width="3.5"/>
<path opacity="0.49" d="M1080 429L1134 483" stroke="white" stroke-width="3.5"/>
<path opacity="0.49" d="M1134 429L1188 483" stroke="white" stroke-width="3.5"/>
<path opacity="0.49" d="M1188 429L1242 483" stroke="white" stroke-width="3.5"/>
<path opacity="0.49" d="M1296 429L1242 483" stroke="white" stroke-width="3.5"/>
<path opacity="0.49" d="M1296 429L1350 483" stroke="white" stroke-width="3.5"/>
<path opacity="0.49" d="M1350 429L1404 483" stroke="white" stroke-width="3.5"/>
<path opacity="0.49" d="M1404 429L1458 483" stroke="white" stroke-width="3.5"/>
<path opacity="0.42" d="M54 483L0 537" stroke="white" stroke-width="3.5"/>
<path opacity="0.42" d="M54 483L108 537" stroke="white" stroke-width="3.5"/>
<path opacity="0.42" d="M162 483L108 537" stroke="white" stroke-width="3.5"/>
<path opacity="0.42" d="M162 483L216 537" stroke="white" stroke-width="3.5"/>
<path opacity="0.42" d="M270 483L216 537" stroke="white" stroke-width="3.5"/>
<path opacity="0.42" d="M324 483L270 537" stroke="white" stroke-width="3.5"/>
<path opacity="0.42" d="M378 483L324 537" stroke="white" stroke-width="3.5"/>
<path opacity="0.42" d="M378 483L432 537" stroke="white" stroke-width="3.5"/>
<path opacity="0.42" d="M486 483L432 537" stroke="white" stroke-width="3.5"/>
<path opacity="0.42" d="M486 483L540 537" stroke="white" stroke-width="3.5"/>
<path opacity="0.42" d="M540 483L594 537" stroke="white" stroke-width="3.5"/>
<path opacity="0.42" d="M594 483L648 537" stroke="white" stroke-width="3.5"/>
<path opacity="0.42" d="M702 483L648 537" stroke="white" stroke-width="3.5"/>
<path opacity="0.42" d="M702 483L756 537" stroke="white" stroke-width="3.5"/>
<path opacity="0.42" d="M756 483L810 537" stroke="white" stroke-width="3.5"/>
<path opacity="0.42" d="M864 483L810 537" stroke="white" stroke-width="3.5"/>
<path opacity="0.42" d="M918 483L864 537" stroke="white" stroke-width="3.5"/>
<path opacity="0.42" d="M972 483L918 537" stroke="white" stroke-width="3.5"/>
<path opacity="0.42" d="M1026 483L972 537" stroke="white" stroke-width="3.5"/>
<path opacity="0.42" d="M1026 483L1080 537" stroke="white" stroke-width="3.5"/>
<path opacity="0.42" d="M1134 483L1080 537" stroke="white" stroke-width="3.5"/>
<path opacity="0.42" d="M1188 483L1134 537" stroke="white" stroke-width="3.5"/>
<path opacity="0.42" d="M1188 483L1242 537" stroke="white" stroke-width="3.5"/>
<path opacity="0.42" d="M1242 483L1296 537" stroke="white" stroke-width="3.5"/>
<path opacity="0.42" d="M1350 483L1296 537" stroke="white" stroke-width="3.5"/>
<path opacity="0.42" d="M1404 483L1350 537" stroke="white" stroke-width="3.5"/>
<path opacity="0.42" d="M1404 483L1458 537" stroke="white" stroke-width="3.5"/>
<path opacity="0.36" d="M54 537L0 591" stroke="white" stroke-width="3.5"/>
<path opacity="0.36" d="M108 537L54 591" stroke="white" stroke-width="3.5"/>
<path opacity="0.36" d="M108 537L162 591" stroke="white" stroke-width="3.5"/>
<path opacity="0.36" d="M216 537L162 591" stroke="white" stroke-width="3.5"/>
<path opacity="0.36" d="M270 537L216 591" stroke="white" stroke-width="3.5"/>
<path opacity="0.36" d="M270 537L324 591" stroke="white" stroke-width="3.5"/>
<path opacity="0.36" d="M378 537L324 591" stroke="white" stroke-width="3.5"/>
<path opacity="0.36" d="M378 537L432 591" stroke="white" stroke-width="3.5"/>
<path opacity="0.36" d="M432 537L486 591" stroke="white" stroke-width="3.5"/>
<path opacity="0.36" d="M540 537L486 591" stroke="white" stroke-width="3.5"/>
<path opacity="0.36" d="M540 537L594 591" stroke="white" stroke-width="3.5"/>
<path opacity="0.36" d="M648 537L594 591" stroke="white" stroke-width="3.5"/>
<path opacity="0.36" d="M702 537L648 591" stroke="white" stroke-width="3.5"/>
<path opacity="0.36" d="M756 537L702 591" stroke="white" stroke-width="3.5"/>
<path opacity="0.36" d="M810 537L756 591" stroke="white" stroke-width="3.5"/>
<path opacity="0.36" d="M864 537L810 591" stroke="white" stroke-width="3.5"/>
<path opacity="0.36" d="M864 537L918 591" stroke="white" stroke-width="3.5"/>
<path opacity="0.36" d="M972 537L918 591" stroke="white" stroke-width="3.5"/>
<path opacity="0.36" d="M972 537L1026 591" stroke="white" stroke-width="3.5"/>
<path opacity="0.36" d="M1080 537L1026 591" stroke="white" stroke-width="3.5"/>
<path opacity="0.36" d="M1080 537L1134 591" stroke="white" stroke-width="3.5"/>
<path opacity="0.36" d="M1134 537L1188 591" stroke="white" stroke-width="3.5"/>
<path opacity="0.36" d="M1188 537L1242 591" stroke="white" stroke-width="3.5"/>
<path opacity="0.36" d="M1242 537L1296 591" stroke="white" stroke-width="3.5"/>
<path opacity="0.36" d="M1296 537L1350 591" stroke="white" stroke-width="3.5"/>
<path opacity="0.36" d="M1404 537L1350 591" stroke="white" stroke-width="3.5"/>
<path opacity="0.36" d="M1458 537L1404 591" stroke="white" stroke-width="3.5"/>
<path opacity="0.29" d="M54 591L0 645" stroke="white" stroke-width="3.5"/>
<path opacity="0.29" d="M108 591L54 645" stroke="white" stroke-width="3.5"/>
<path opacity="0.29" d="M108 591L162 645" stroke="white" stroke-width="3.5"/>
<path opacity="0.29" d="M216 591L162 645" stroke="white" stroke-width="3.5"/>
<path opacity="0.29" d="M216 591L270 645" stroke="white" stroke-width="3.5"/>
<path opacity="0.29" d="M324 591L270 645" stroke="white" stroke-width="3.5"/>
<path opacity="0.29" d="M324 591L378 645" stroke="white" stroke-width="3.5"/>
<path opacity="0.29" d="M432 591L378 645" stroke="white" stroke-width="3.5"/>
<path opacity="0.29" d="M432 591L486 645" stroke="white" stroke-width="3.5"/>
<path opacity="0.29" d="M540 591L486 645" stroke="white" stroke-width="3.5"/>
<path opacity="0.29" d="M540 591L594 645" stroke="white" stroke-width="3.5"/>
<path opacity="0.29" d="M594 591L648 645" stroke="white" stroke-width="3.5"/>
<path opacity="0.29" d="M702 591L648 645" stroke="white" stroke-width="3.5"/>
<path opacity="0.29" d="M756 591L702 645" stroke="white" stroke-width="3.5"/>
<path opacity="0.29" d="M810 591L756 645" stroke="white" stroke-width="3.5"/>
<path opacity="0.29" d="M810 591L864 645" stroke="white" stroke-width="3.5"/>
<path opacity="0.29" d="M918 591L864 645" stroke="white" stroke-width="3.5"/>
<path opacity="0.29" d="M972 591L918 645" stroke="white" stroke-width="3.5"/>
<path opacity="0.29" d="M972 591L1026 645" stroke="white" stroke-width="3.5"/>
<path opacity="0.29" d="M1080 591L1026 645" stroke="white" stroke-width="3.5"/>
<path opacity="0.29" d="M1080 591L1134 645" stroke="white" stroke-width="3.5"/>
<path opacity="0.29" d="M1188 591L1134 645" stroke="white" stroke-width="3.5"/>
<path opacity="0.29" d="M1188 591L1242 645" stroke="white" stroke-width="3.5"/>
<path opacity="0.29" d="M1296 591L1242 645" stroke="white" stroke-width="3.5"/>
<path opacity="0.29" d="M1296 591L1350 645" stroke="white" stroke-width="3.5"/>
<path opacity="0.29" d="M1404 591L1350 645" stroke="white" stroke-width="3.5"/>
<path opacity="0.29" d="M1458 591L1404 645" stroke="white" stroke-width="3.5"/>
<path opacity="0.23" d="M0 645L54 699" stroke="white" stroke-width="3.5"/>
<path opacity="0.23" d="M108 645L54 699" stroke="white" stroke-width="3.5"/>
<path opacity="0.23" d="M108 645L162 699" stroke="white" stroke-width="3.5"/>
<path opacity="0.23" d="M216 645L162 699" stroke="white" stroke-width="3.5"/>
<path opacity="0.23" d="M270 645L216 699" stroke="white" stroke-width="3.5"/>
<path opacity="0.23" d="M324 645L270 699" stroke="white" stroke-width="3.5"/>
<path opacity="0.23" d="M378 645L324 699" stroke="white" stroke-width="3.5"/>
<path opacity="0.23" d="M432 645L378 699" stroke="white" stroke-width="3.5"/>
<path opacity="0.23" d="M486 645L432 699" stroke="white" stroke-width="3.5"/>
<path opacity="0.23" d="M540 645L486 699" stroke="white" stroke-width="3.5"/>
<path opacity="0.23" d="M540 645L594 699" stroke="white" stroke-width="3.5"/>
<path opacity="0.23" d="M648 645L594 699" stroke="white" stroke-width="3.5"/>
<path opacity="0.23" d="M702 645L648 699" stroke="white" stroke-width="3.5"/>
<path opacity="0.23" d="M756 645L702 699" stroke="white" stroke-width="3.5"/>
<path opacity="0.23" d="M810 645L756 699" stroke="white" stroke-width="3.5"/>
<path opacity="0.23" d="M864 645L810 699" stroke="white" stroke-width="3.5"/>
<path opacity="0.23" d="M918 645L864 699" stroke="white" stroke-width="3.5"/>
<path opacity="0.23" d="M918 645L972 699" stroke="white" stroke-width="3.5"/>
<path opacity="0.23" d="M1026 645L972 699" stroke="white" stroke-width="3.5"/>
<path opacity="0.23" d="M1080 645L1026 699" stroke="white" stroke-width="3.5"/>
<path opacity="0.23" d="M1080 645L1134 699" stroke="white" stroke-width="3.5"/>
<path opacity="0.23" d="M1134 645L1188 699" stroke="white" stroke-width="3.5"/>
<path opacity="0.23" d="M1242 645L1188 699" stroke="white" stroke-width="3.5"/>
<path opacity="0.23" d="M1296 645L1242 699" stroke="white" stroke-width="3.5"/>
<path opacity="0.23" d="M1350 645L1296 699" stroke="white" stroke-width="3.5"/>
<path opacity="0.23" d="M1350 645L1404 699" stroke="white" stroke-width="3.5"/>
<path opacity="0.23" d="M1458 645L1404 699" stroke="white" stroke-width="3.5"/>
<path opacity="0.17" d="M54 699L0 753" stroke="white" stroke-width="3.5"/>
<path opacity="0.17" d="M108 699L54 753" stroke="white" stroke-width="3.5"/>
<path opacity="0.17" d="M162 699L108 753" stroke="white" stroke-width="3.5"/>
<path opacity="0.17" d="M162 699L216 753" stroke="white" stroke-width="3.5"/>
<path opacity="0.17" d="M216 699L270 753" stroke="white" stroke-width="3.5"/>
<path opacity="0.17" d="M270 699L324 753" stroke="white" stroke-width="3.5"/>
<path opacity="0.17" d="M324 699L378 753" stroke="white" stroke-width="3.5"/>
<path opacity="0.17" d="M432 699L378 753" stroke="white" stroke-width="3.5"/>
<path opacity="0.17" d="M432 699L486 753" stroke="white" stroke-width="3.5"/>
<path opacity="0.17" d="M486 699L540 753" stroke="white" stroke-width="3.5"/>
<path opacity="0.17" d="M594 699L540 753" stroke="white" stroke-width="3.5"/>
<path opacity="0.17" d="M594 699L648 753" stroke="white" stroke-width="3.5"/>
<path opacity="0.17" d="M648 699L702 753" stroke="white" stroke-width="3.5"/>
<path opacity="0.17" d="M702 699L756 753" stroke="white" stroke-width="3.5"/>
<path opacity="0.17" d="M756 699L810 753" stroke="white" stroke-width="3.5"/>
<path opacity="0.17" d="M864 699L810 753" stroke="white" stroke-width="3.5"/>
<path opacity="0.17" d="M864 699L918 753" stroke="white" stroke-width="3.5"/>
<path opacity="0.17" d="M918 699L972 753" stroke="white" stroke-width="3.5"/>
<path opacity="0.17" d="M972 699L1026 753" stroke="white" stroke-width="3.5"/>
<path opacity="0.17" d="M1026 699L1080 753" stroke="white" stroke-width="3.5"/>
<path opacity="0.17" d="M1134 699L1080 753" stroke="white" stroke-width="3.5"/>
<path opacity="0.17" d="M1188 699L1134 753" stroke="white" stroke-width="3.5"/>
<path opacity="0.17" d="M1242 699L1188 753" stroke="white" stroke-width="3.5"/>
<path opacity="0.17" d="M1242 699L1296 753" stroke="white" stroke-width="3.5"/>
<path opacity="0.17" d="M1296 699L1350 753" stroke="white" stroke-width="3.5"/>
<path opacity="0.17" d="M1350 699L1404 753" stroke="white" stroke-width="3.5"/>
<path opacity="0.17" d="M1404 699L1458 753" stroke="white" stroke-width="3.5"/>
<path opacity="0.1" d="M0 753L54 807" stroke="white" stroke-width="3.5"/>
<path opacity="0.1" d="M108 753L54 807" stroke="white" stroke-width="3.5"/>
<path opacity="0.1" d="M108 753L162 807" stroke="white" stroke-width="3.5"/>
<path opacity="0.1" d="M216 753L162 807" stroke="white" stroke-width="3.5"/>
<path opacity="0.1" d="M216 753L270 807" stroke="white" stroke-width="3.5"/>
<path opacity="0.1" d="M270 753L324 807" stroke="white" stroke-width="3.5"/>
<path opacity="0.1" d="M378 753L324 807" stroke="white" stroke-width="3.5"/>
<path opacity="0.1" d="M432 753L378 807" stroke="white" stroke-width="3.5"/>
<path opacity="0.1" d="M432 753L486 807" stroke="white" stroke-width="3.5"/>
<path opacity="0.1" d="M540 753L486 807" stroke="white" stroke-width="3.5"/>
<path opacity="0.1" d="M594 753L540 807" stroke="white" stroke-width="3.5"/>
<path opacity="0.1" d="M594 753L648 807" stroke="white" stroke-width="3.5"/>
<path opacity="0.1" d="M648 753L702 807" stroke="white" stroke-width="3.5"/>
<path opacity="0.1" d="M702 753L756 807" stroke="white" stroke-width="3.5"/>
<path opacity="0.1" d="M810 753L756 807" stroke="white" stroke-width="3.5"/>
<path opacity="0.1" d="M864 753L810 807" stroke="white" stroke-width="3.5"/>
<path opacity="0.1" d="M864 753L918 807" stroke="white" stroke-width="3.5"/>
<path opacity="0.1" d="M972 753L918 807" stroke="white" stroke-width="3.5"/>
<path opacity="0.1" d="M1026 753L972 807" stroke="white" stroke-width="3.5"/>
<path opacity="0.1" d="M1080 753L1026 807" stroke="white" stroke-width="3.5"/>
<path opacity="0.1" d="M1134 753L1080 807" stroke="white" stroke-width="3.5"/>
<path opacity="0.1" d="M1134 753L1188 807" stroke="white" stroke-width="3.5"/>
<path opacity="0.1" d="M1188 753L1242 807" stroke="white" stroke-width="3.5"/>
<path opacity="0.1" d="M1296 753L1242 807" stroke="white" stroke-width="3.5"/>
<path opacity="0.1" d="M1350 753L1296 807" stroke="white" stroke-width="3.5"/>
<path opacity="0.1" d="M1404 753L1350 807" stroke="white" stroke-width="3.5"/>
<path opacity="0.1" d="M1458 753L1404 807" stroke="white" stroke-width="3.5"/>
</g>
<defs>
<clipPath id="clip0_64_185659">
<rect width="1422" height="800" fill="white" transform="translate(0 -3)"/>
</clipPath>
</defs>
</svg>
